Coordinates
version=1
nRows=17
nColumns=24
inDegrees=yes

Units are S.I. units (second, meters, Newtons, ...)
Angles are in degrees.

endheader
time	pelvis_tilt	pelvis_list	pelvis_rotation	pelvis_tx	pelvis_ty	pelvis_tz	hip_flexion_r	hip_adduction_r	hip_rotation_r	knee_angle_r	ankle_angle_r	subtalar_angle_r	mtp_angle_r	hip_flexion_l	hip_adduction_l	hip_rotation_l	knee_angle_l	ankle_angle_l	subtalar_angle_l	mtp_angle_l	lumbar_extension	lumbar_bending	lumbar_rotation
      0.60000000	    -10.59913468	     -2.76113135	      1.96110127	     -0.59217743	      1.21251928	     -0.80372337	     -2.23472998	      9.72801949	      5.05994112	     -8.46577658	     13.32519291	     -2.92856861	      6.34745503	     35.41790449	      5.21158725	      8.36827492	     -8.09104810	     -1.93532896	     -4.26411866	      8.60223755	     -2.76285800	      3.20341607	      5.65717154
      0.60500000	    -10.59450524	     -2.79239190	      1.86289704	     -0.58673192	      1.21206773	     -0.80407912	     -2.38933867	      9.72030934	      5.03278765	     -8.98671639	     13.45259407	     -2.54261846	      6.79690265	     35.45693657	      5.29959103	      8.50893589	     -8.62580515	     -2.62724544	     -4.57471679	      8.67118212	     -2.73267339	      3.20068726	      5.65805961
      0.61000000	    -10.57669193	     -2.80420088	      1.77373025	     -0.58125154	      1.21169211	     -0.80443244	     -2.53604854	      9.69196392	      4.99891906	     -9.54641511	     13.55197341	     -2.18488249	      7.27244906	     35.49037488	      5.41095741	      8.66908230	     -9.22628148	     -3.43983283	     -4.97474493	      8.79885141	     -2.72003535	      3.16828902	      5.65396175
      0.61500000	    -10.54822889	     -2.80107239	      1.68727572	     -0.57576190	      1.21138343	     -0.80478110	     -2.65126884	      9.64830409	      4.95162935	    -10.18136697	     13.63577382	     -1.81568565	      7.77772380	     35.52728146	      5.53627913	      8.84055447	     -9.89355743	     -4.31462985	     -5.41143343	      8.91681500	     -2.72383543	      3.11344755	      5.64740524
      0.62000000	    -10.51585122	     -2.77886160	      1.61386955	     -0.57023318	      1.21115338	     -0.80513074	     -2.73409097	      9.58362362	      4.86464012	    -10.87803789	     13.69862236	     -1.43564614	      8.34059978	     35.56996600	      5.68404531	      9.02493447	    -10.61589455	     -5.24940329	     -5.88670632	      9.01913540	     -2.72784592	      3.02741812	      5.63334265
      0.62500000	    -10.49706867	     -2.73109526	      1.52348631	     -0.56467209	      1.21100079	     -0.80542947	     -2.75008264	      9.49571528	      4.79562140	    -11.66534822	     13.75702758	     -1.07416312	      8.89888625	     35.63482237	      5.83547031	      9.16213814	    -11.38502837	     -6.19648129	     -6.27424681	      9.05216329	     -2.71543062	      2.90202645	      5.67213192
      0.63000000	    -10.43638776	     -2.68211593	      1.49013085	     -0.55909232	      1.21093666	     -0.80581574	     -2.77208824	      9.39767825	      4.57699136	    -12.50988495	     13.76389155	     -0.63149055	      9.63136309	     35.67018091	      6.02500203	      9.38757067	    -12.20793388	     -7.14838096	     -6.79195839	      9.10088658	     -2.75288353	      2.77351296	      5.61241524
      0.63500000	    -10.37928149	     -2.61063763	      1.44188736	     -0.55347569	      1.21096960	     -0.80615861	     -2.73920035	      9.27864263	      4.38016976	    -13.44104763	     13.72854987	     -0.22544540	     10.36374202	     35.71021399	      6.21526124	      9.55835241	    -13.06101070	     -8.03002882	     -7.20122097	      9.11913876	     -2.78483211	      2.61194284	      5.59231251
      0.64000000	    -10.29705297	     -2.53055626	      1.42452349	     -0.54782307	      1.21109036	     -0.80653658	     -2.68500315	      9.14307905	      4.07958866	    -14.44797048	     13.65264869	      0.23139944	     11.21292896	     35.72654153	      6.42851750	      9.75579275	    -13.94759591	     -8.83648267	     -7.61066794	      9.10854085	     -2.84067701	      2.43673683	      5.53893723
      0.64500000	    -10.21444317	     -2.43642737	      1.40971745	     -0.54213084	      1.21130721	     -0.80689999	     -2.57192129	      8.98895195	      3.74537104	    -15.55024758	     13.52685616	      0.69408310	     12.11667665	     35.73562662	      6.64787623	      9.92847983	    -14.85020993	     -9.53978389	     -7.94798337	      9.06661779	     -2.89175663	      2.23814609	      5.49877458
      0.65000000	    -10.10725885	     -2.33405555	      1.42291068	     -0.53640241	      1.21161560	     -0.80729014	     -2.43208574	      8.81531431	      3.31500978	    -16.73422787	     13.35347062	      1.19638313	     13.14041559	     35.70823383	      6.88769035	     10.11161609	    -15.76025611	    -10.11993579	     -8.25444671	      9.00179400	     -2.96639941	      2.02283555	      5.43982121
      0.65500000	     -9.99985645	     -2.21922743	      1.43744172	     -0.53064962	      1.21201487	     -0.80768100	     -2.22251991	      8.61711050	      2.84331049	    -18.02847163	     13.10849806	      1.70351925	     14.18671531	     35.65819084	      7.13266361	     10.28074940	    -16.65446316	    -10.57302864	     -8.47282120	      8.91531217	     -3.04436180	      1.79775268	      5.37351808
      0.66000000	     -9.87952681	     -2.09580493	      1.47392144	     -0.52484718	      1.21250279	     -0.80809842	     -1.96823995	      8.39186934	      2.28246426	    -19.41389536	     12.80037920	      2.24991430	     15.32576664	     35.56753285	      7.39507446	     10.45421387	    -17.52672439	    -10.89009100	     -8.64702109	      8.81734157	     -3.12639572	      1.55771016	      5.30321782
      0.66500000	     -9.70686687	     -1.96509553	      1.52590538	     -0.51901822	      1.21311922	     -0.80853450	     -1.72606620	      8.13966244	      1.66354454	    -20.85766487	     12.45137475	      2.79337817	     16.67947276	     35.39204328	      7.67005815	     10.61644007	    -18.37810901	    -11.06542815	     -8.84538843	      8.69240677	     -3.25839151	      1.30675783	      5.26362442
      0.67000000	     -9.61168513	     -1.82306423	      1.57706416	     -0.51316057	      1.21374805	     -0.80896648	     -1.29129422	      7.85494838	      0.99867729	    -22.48637170	     11.95573706	      3.34305089	     17.78212786	     35.23967875	      7.94527953	     10.79434032	    -19.12573307	    -11.16782148	     -8.86870495	      8.62026998	     -3.30776986	      1.04803517	      5.15868212
      0.67500000	     -9.41272808	     -1.66149537	      1.64041982	     -0.50727150	      1.21454729	     -0.80942732	     -0.94407177	      7.51733243	      0.27370562	    -24.12871777	     11.41763562	      3.88231735	     19.36736266	     34.92383600	      8.24243493	     10.93983131	    -19.81710317	    -11.13527992	     -9.01274947	      8.45201885	     -3.46094125	      0.76725136	      5.11143977
      0.68000000	     -9.30561587	     -1.50637846	      1.72311308	     -0.50141174	      1.21525816	     -0.80993872	     -0.38430053	      7.15491680	     -0.51986299	    -25.96449701	     10.78850165	      4.45316514	     20.44733825	     34.70208112	      8.54784379	     11.10366698	    -20.49583876	    -11.01228402	     -9.03287055	      8.41138991	     -3.51549201	      0.49815511	      5.04347721
